<svg xmlns="http://www.w3.org/2000/svg" width="283.705" height="387.73" viewBox="0 0 283.705 387.73">
  <g id="Group_230" data-name="Group 230" transform="translate(-334.489 -155.375)">
    <path id="Path_355" data-name="Path 355" d="M692.334,353.916" transform="translate(-158.024 -88.183)" fill="#f5ae2d" stroke="#030504" stroke-miterlimit="10" stroke-width="1"/>
    <g id="Group_228" data-name="Group 228" transform="translate(334.489 155.375)">
      <path id="Path_356" data-name="Path 356" d="M617.813,317.616,612.758,262c-.168-1.853-.412-3.8-.72-5.736l-.077-.755-.039,0c-.005-.033-.01-.065-.015-.1.787-13.289-2.172-28.4-8.8-44.909-5.855-14.594-14.129-26.947-23.926-35.721-9.9-8.869-20.9-13.678-31.8-13.912a84.728,84.728,0,0,0-34.608-5.326c-30.2,2.341-44.745,13.023-62.5,33.217-19.206,21.843-29.308,23.783-29.371,23.795l-6.259.641L419,217.784a115.935,115.935,0,0,0,8.609,8.188c-2.05,4.923-2.9,12.734-2.524,23.231a71.436,71.436,0,0,0,2.19,14.906,17.082,17.082,0,0,0-3.692,1.211c-1.876-7.014-7.755-12.093-14.516-12.446a13.758,13.758,0,0,0-1.639.015c-.217.012-.433.033-.672.057-.3.033-.6.076-.884.124a14.933,14.933,0,0,0-2.005.472l-.069.021c-.51.162-.978.333-1.418.518a18.5,18.5,0,0,0-14.537-8.608,18.265,18.265,0,0,0-13.952,5.518,21.8,21.8,0,0,0-6.269,14.379c-.007.141-.013.287-.017.439a12.922,12.922,0,0,0-3.916-.824c-.409-.021-.836-.024-1.268-.005-6.785.295-12.55,6.032-13.408,13.346a16.324,16.324,0,0,0,1.046,7.993,7.254,7.254,0,0,0-4.349,6.321l-1.861,39.237a28.473,28.473,0,0,0-8.25,18.652l-1.069,20.818a28.52,28.52,0,0,0,5.96,18.959l-.495,13.57a7.279,7.279,0,0,0,1.852,5.254,7.155,7.155,0,0,0,4.988,2.4l90.413,4.73a7.163,7.163,0,0,0,5.206-1.868,7.272,7.272,0,0,0,2.38-5.033l2.223-43.277a90.332,90.332,0,0,0,80.922,50.836h.007c2.743,0,5.523-.128,8.26-.381C585.762,411.956,622.353,367.58,617.813,317.616Zm-170,33.715,2.7-52.6a45.694,45.694,0,0,0,24.506,7.393c1.247,0,2.5-.057,3.72-.17,14.757-1.365,27.653-9.064,33.99-20.205a12.226,12.226,0,0,0,11.188,7.517c.371,0,.747-.017,1.118-.052a12.226,12.226,0,0,0,10.761-9.609c7.317,8.7,19.335,13.855,32.435,13.855,1.537,0,3.1-.072,4.641-.215a45.506,45.506,0,0,0,28.5-14.334,43.7,43.7,0,0,0,6.329-8.637l3.99,43.906a84.749,84.749,0,0,1-19.085,61.976,83.267,83.267,0,0,1-56.929,30.207C496.476,413.994,459.539,389.17,447.812,351.331ZM363,271.165c.125,0,.247,0,.369.01a6.921,6.921,0,0,1,2.667.692,5.223,5.223,0,0,0,5.37-.5,5.806,5.806,0,0,0,2.331-4.721c0-.365,0-.665.019-.949a15.591,15.591,0,0,1,4.454-10.3,12.223,12.223,0,0,1,9.315-3.735,12.513,12.513,0,0,1,10,6.257,5.275,5.275,0,0,0,6.832,2.057,9.231,9.231,0,0,1,1.237-.487l.06-.018a8.677,8.677,0,0,1,1.229-.288c.175-.031.351-.056.556-.078.113-.012.225-.024.352-.03a8.358,8.358,0,0,1,.958-.013c4.3.224,8.012,3.69,9.04,8.43a5.6,5.6,0,0,0,2.861,3.811,5.205,5.205,0,0,0,4.864-.037,10.892,10.892,0,0,1,6.41-1.246c6,.684,10.692,6.573,10.679,13.408,0,2.026-1.7,4.744-3.029,6.812l-.835-.032-29.476-2.065-38.781-2.029a9.478,9.478,0,0,0-7.241,2.85,11.019,11.019,0,0,0-3.176,7.263l-1.209,23.525a1.45,1.45,0,0,1-.4.962.64.64,0,0,1-.515.235.683.683,0,0,1-.487-.287,1.456,1.456,0,0,1-.3-1l1.493-29.04a5.89,5.89,0,0,0-1.38-4.107,9.708,9.708,0,0,1-2.156-7.46h0c.508-4.328,3.762-7.717,7.571-7.883C362.786,271.167,362.893,271.165,363,271.165Zm15.252,40.364-.8,15.606a27.915,27.915,0,0,0-2.727-1.343l.741-14.408a1.4,1.4,0,0,1,.462-.969,1.365,1.365,0,0,1,1-.365,1.383,1.383,0,0,1,.964.465A1.4,1.4,0,0,1,378.25,311.529Zm16.663,83.806,4.25-82.712a1.417,1.417,0,0,1,1.391-1.336l.075,0a1.4,1.4,0,0,1,1.321,1.479L397.7,395.48a1.4,1.4,0,0,1-.463.97,1.37,1.37,0,0,1-1.964-.1A1.4,1.4,0,0,1,394.913,395.335ZM349.36,335.155l.312-.259a21.942,21.942,0,0,1,14.072-5.151c.383,0,.768.009,1.155.03a21.815,21.815,0,0,1,15.219,7.345,22.212,22.212,0,0,1,5.667,16.033l-1.07,20.818a22.168,22.168,0,0,1-7.28,15.355,21.817,21.817,0,0,1-31.108-1.627,22.217,22.217,0,0,1-5.666-16.032l1.069-20.819A22.129,22.129,0,0,1,349.36,335.155Zm-2.937,60.882a27.89,27.89,0,0,0,22.23,4.591,7.487,7.487,0,0,0,11.417-5.449c.548-.433,1.033-.843,1.479-1.248a28.391,28.391,0,0,0,7.911-12.188l-.682,13.271a7.6,7.6,0,0,0,1.934,5.483A7.466,7.466,0,0,0,395.919,403c.132.007.263.01.394.01a7.483,7.483,0,0,0,5.038-1.96,7.584,7.584,0,0,0,2.484-5.252l4.25-82.713a7.589,7.589,0,0,0-7.138-7.989h0a7.462,7.462,0,0,0-5.434,1.951,7.581,7.581,0,0,0-2.484,5.252L391.3,345.92a28.455,28.455,0,0,0-6.621-12.949c-.385-.432-.816-.879-1.311-1.363l1.016-19.759a7.592,7.592,0,0,0-7.139-7.99,7.438,7.438,0,0,0-5.434,1.951,7.582,7.582,0,0,0-2.485,5.252l-.664,12.92a28.21,28.21,0,0,0-3.446-.4c-.4-.021-.813-.031-1.251-.033a7.725,7.725,0,0,0,1.019-3.481l1.209-23.525a4.8,4.8,0,0,1,1.361-3.178,3.4,3.4,0,0,1,2.6-1.066l38.727,2.025,33.879,2.374.054-.087.571.03a1.116,1.116,0,0,1,1.023,1.145L438.7,409.04a1.082,1.082,0,0,1-.358.75,1.046,1.046,0,0,1-.776.282l-90.412-4.73a1.065,1.065,0,0,1-.743-.361,1.116,1.116,0,0,1-.278-.83Zm86.7-133.866a65.569,65.569,0,0,1-1.9-13.192c-.363-10.145.533-15.828,1.446-18.919,2.327,1.771,4.722,3.449,7.134,5A90.717,90.717,0,0,0,433.123,262.172Zm139.206-64.813c2.222,18.242-9.873,40.073-37.289,46.5-10.822,2.539-66.692,13.11-108.2-26.936,5.625-2.709,14.878-9.084,28.038-24.051,17.023-19.36,30.1-28.96,58.377-31.151C530.941,160.352,568.663,167.261,572.329,197.358Zm6.34,2.249c-.05-1.093-.131-2.078-.243-3a39.053,39.053,0,0,0-10.756-22.829c12.107,7.753,22.786,21.706,29.748,39.057a136.928,136.928,0,0,1,5.208,15.48A93.816,93.816,0,0,0,578.669,199.607Zm27.065,56.871.121.009.035.215.035.209c1.122,15.57-15.527,32.492-33.613,34.166-19.093,1.766-35.8-8.96-37.222-23.936l-.725-5.48a12.24,12.24,0,0,0-7.044-10.013c3.952-.61,7.073-1.269,9.111-1.747,12.215-2.866,22.619-8.8,30.088-17.154a47.969,47.969,0,0,0,11.814-25.321c14.669,13.109,24.135,29.811,27.4,48.368l-.007.119ZM529.9,280.461a6.051,6.051,0,0,1-1.365,4.425,5.957,5.957,0,0,1-8.446.786,6.035,6.035,0,0,1-2.144-4.1l-1.657-18.234a6.054,6.054,0,0,1,1.363-4.427,5.95,5.95,0,0,1,4.067-2.157q.277-.026.552-.026a6.067,6.067,0,0,1,5.973,5.5Zm-84.778-42.2A116.353,116.353,0,0,0,483.783,251.6a138.173,138.173,0,0,0,31.165,1.4,12.048,12.048,0,0,0-2.015,1.939,12.234,12.234,0,0,0-2.76,8.935l.3,5.563c1.3,14.965-13.182,28.578-32.289,30.346h0c-10.856,1.007-22.549-3.3-30.612-11.264a12.906,12.906,0,0,0,1.175-5.081A20.185,20.185,0,0,0,439.017,266,84.532,84.532,0,0,1,445.126,238.265Zm-94.107,81.077a7.673,7.673,0,0,0,1.683,5.251,7.119,7.119,0,0,0,.862.889,28.3,28.3,0,0,0-3.339,1.57l1.618-34.1a1.105,1.105,0,0,1,.373-.749,1.155,1.155,0,0,1,.206-.148Z" transform="translate(-334.489 -155.375)" fill="#f5ae2d"/>
      <path id="Path_357" data-name="Path 357" d="M564.378,362.894l9.1-.834.835,9.1,6.171-.567-.835-9.1,9.1-.834-.566-6.172-9.1.834-.835-9.1-6.172.566.835,9.1-9.1.834Z" transform="translate(-435.867 -238.695)" fill="#f5ae2d"/>
      <path id="Path_358" data-name="Path 358" d="M759.961,338.737l-9.1.834-.835-9.1-6.171.567.835,9.1-9.1.834.566,6.171,9.1-.834.835,9.1,6.171-.567-.835-9.1,9.1-.834Z" transform="translate(-512.152 -231.818)" fill="#f5ae2d"/>
      <rect id="Rectangle_133" data-name="Rectangle 133" width="4.507" height="9.077" transform="translate(40.68 41.482)" fill="#f5ae2d"/>
      <rect id="Rectangle_134" data-name="Rectangle 134" width="8.391" height="4.507" transform="translate(47.395 51.492) rotate(-26.654)" fill="#f5ae2d"/>
      <rect id="Rectangle_135" data-name="Rectangle 135" width="4.507" height="7.37" transform="matrix(0.548, -0.837, 0.837, 0.548, 47.644, 64.214)" fill="#f5ae2d"/>
      <rect id="Rectangle_136" data-name="Rectangle 136" width="8.105" height="4.507" transform="translate(39.208 73.549) rotate(-88.779)" fill="#f5ae2d"/>
      <rect id="Rectangle_137" data-name="Rectangle 137" width="8.007" height="4.507" transform="matrix(0.881, -0.474, 0.474, 0.881, 27.361, 64.177)" fill="#f5ae2d"/>
      <rect id="Rectangle_138" data-name="Rectangle 138" width="4.507" height="8.007" transform="translate(27.361 51.713) rotate(-61.734)" fill="#f5ae2d"/>
      <rect id="Rectangle_139" data-name="Rectangle 139" width="5.884" height="3.381" transform="translate(75.61 78.562) rotate(-77.14)" fill="#f5ae2d"/>
      <rect id="Rectangle_140" data-name="Rectangle 140" width="5.474" height="3.381" transform="translate(79.7 79.638) rotate(-13.775)" fill="#f5ae2d"/>
      <rect id="Rectangle_141" data-name="Rectangle 141" width="3.38" height="4.863" transform="translate(77.809 87.385) rotate(-43.911)" fill="#f5ae2d"/>
      <rect id="Rectangle_142" data-name="Rectangle 142" width="5.303" height="3.38" transform="translate(71.719 91.769) rotate(-75.909)" fill="#f5ae2d"/>
      <rect id="Rectangle_143" data-name="Rectangle 143" width="5.243" height="3.381" transform="translate(66.182 84.317) rotate(-15.404)" fill="#f5ae2d"/>
      <rect id="Rectangle_144" data-name="Rectangle 144" width="3.38" height="5.244" transform="translate(67.742 77.423) rotate(-48.86)" fill="#f5ae2d"/>
      <rect id="Rectangle_145" data-name="Rectangle 145" width="4.507" height="7.787" transform="translate(76.77 1.613) rotate(-12.354)" fill="#f5ae2d"/>
      <rect id="Rectangle_146" data-name="Rectangle 146" width="7.212" height="4.508" transform="translate(84.419 8.305) rotate(-38.995)" fill="#f5ae2d"/>
      <rect id="Rectangle_147" data-name="Rectangle 147" width="4.507" height="6.357" transform="matrix(0.356, -0.934, 0.934, 0.356, 86.611, 19.287)" fill="#f5ae2d"/>
      <rect id="Rectangle_148" data-name="Rectangle 148" width="4.508" height="6.973" transform="translate(79.974 21.449) rotate(-11.138)" fill="#f5ae2d"/>
      <rect id="Rectangle_149" data-name="Rectangle 149" width="6.891" height="4.507" transform="matrix(0.759, -0.651, 0.651, 0.759, 70.064, 22.366)" fill="#f5ae2d"/>
      <rect id="Rectangle_150" data-name="Rectangle 150" width="4.507" height="6.89" transform="translate(67.97 12.711) rotate(-74.089)" fill="#f5ae2d"/>
      <path id="Path_359" data-name="Path 359" d="M481.349,521.212c.134.007.268.01.4.01a7.62,7.62,0,0,0,7.59-7.212l4.288-82.712a7.606,7.606,0,0,0-15.192-.788l-4.288,82.712a7.614,7.614,0,0,0,7.2,7.99Zm-1.012-7.668,4.288-82.712a1.407,1.407,0,0,1,1.406-1.336l.074,0a1.421,1.421,0,0,1,1.333,1.48l-4.287,82.712a1.394,1.394,0,0,1-.467.969,1.364,1.364,0,0,1-1.013.365,1.42,1.42,0,0,1-1.333-1.479Z" transform="translate(-396.208 -272.344)" fill="#f5ae2d"/>
      <rect id="Rectangle_151" data-name="Rectangle 151" width="14.532" height="6.198" transform="translate(127.857 173.8) rotate(-72.983)" fill="#f5ae2d"/>
      <rect id="Rectangle_152" data-name="Rectangle 152" width="6.198" height="12.146" transform="translate(168.485 161.666) rotate(-16.068)" fill="#f5ae2d"/>
      <rect id="Rectangle_153" data-name="Rectangle 153" width="6.198" height="10.792" transform="translate(205.076 156.404)" fill="#f5ae2d"/>
      <rect id="Rectangle_154" data-name="Rectangle 154" width="6.198" height="10.974" transform="translate(228.429 158.015) rotate(-29.743)" fill="#f5ae2d"/>
      <rect id="Rectangle_155" data-name="Rectangle 155" width="11.96" height="6.198" transform="translate(254.189 160.738) rotate(-68.512)" fill="#f5ae2d"/>
      <rect id="Rectangle_156" data-name="Rectangle 156" width="6.197" height="10.252" transform="matrix(0.758, -0.652, 0.652, 0.758, 117.655, 199.461)" fill="#f5ae2d"/>
      <rect id="Rectangle_157" data-name="Rectangle 157" width="6.198" height="10.296" transform="translate(153.342 195.049)" fill="#f5ae2d"/>
      <rect id="Rectangle_158" data-name="Rectangle 158" width="6.198" height="12.484" transform="translate(185.725 196.986) rotate(-36.158)" fill="#f5ae2d"/>
      <rect id="Rectangle_159" data-name="Rectangle 159" width="11.042" height="6.198" transform="matrix(0.38, -0.925, 0.925, 0.38, 221.688, 204.125)" fill="#f5ae2d"/>
      <rect id="Rectangle_160" data-name="Rectangle 160" width="6.198" height="9.585" transform="matrix(0.729, -0.685, 0.685, 0.729, 249.883, 197.324)" fill="#f5ae2d"/>
      <rect id="Rectangle_161" data-name="Rectangle 161" width="6.197" height="10.002" transform="translate(163.483 230.389) rotate(-20.099)" fill="#f5ae2d"/>
      <rect id="Rectangle_162" data-name="Rectangle 162" width="6.198" height="10.792" transform="translate(200.043 224.908)" fill="#f5ae2d"/>
      <rect id="Rectangle_163" data-name="Rectangle 163" width="6.198" height="10.974" transform="matrix(0.868, -0.496, 0.496, 0.868, 223.809, 226.519)" fill="#f5ae2d"/>
    </g>
    <g id="Group_229" data-name="Group 229" transform="translate(346.933 413.743)">
      <path id="Path_360" data-name="Path 360" d="M388.307,644.868V623.323h10.728v37.953a33.281,33.281,0,0,1-.9,8.2,24.05,24.05,0,0,1-2.388,6.085,16.8,16.8,0,0,1-3.38,4.237,21.381,21.381,0,0,1-3.876,2.75,23.363,23.363,0,0,1-10.548,2.524,23.74,23.74,0,0,1-10.728-2.524,22.644,22.644,0,0,1-3.922-2.75,16.522,16.522,0,0,1-3.426-4.192,23.156,23.156,0,0,1-2.388-6.04,33.164,33.164,0,0,1-.9-8.2,34.836,34.836,0,0,1,.857-8.2,25.083,25.083,0,0,1,2.254-6.085,17.765,17.765,0,0,1,3.154-4.282A18.212,18.212,0,0,1,366.492,640a20.685,20.685,0,0,1,9.915-2.7,18.828,18.828,0,0,1,5.409,1.352,18.617,18.617,0,0,1,4.6,3.02,14.941,14.941,0,0,1,3.876,5.814ZM377.94,674.8a9.528,9.528,0,0,0,5.364-1.353,9.68,9.68,0,0,0,3.154-3.38,13.007,13.007,0,0,0,1.488-4.372,26.149,26.149,0,0,0,0-8.654,13.023,13.023,0,0,0-1.488-4.372,9.689,9.689,0,0,0-3.154-3.381,11.315,11.315,0,0,0-10.728,0,9.274,9.274,0,0,0-3.111,3.381,13.61,13.61,0,0,0-1.442,4.372,26.149,26.149,0,0,0,0,8.654,13.592,13.592,0,0,0,1.442,4.372,9.266,9.266,0,0,0,3.111,3.38A9.518,9.518,0,0,0,377.94,674.8Z" transform="translate(-356.575 -623.323)" fill="#f5ae2d"/>
      <path id="Path_361" data-name="Path 361" d="M467.455,663.545a12.056,12.056,0,0,1,1.983-7.347,14.544,14.544,0,0,1,4.327-4.011,15.581,15.581,0,0,1,6.309-1.984H492.7v10.908h-8.474a5.968,5.968,0,0,0-2.929.631,6.566,6.566,0,0,0-1.758,1.352,5.132,5.132,0,0,0-.992,1.984v30.83H467.455Z" transform="translate(-405.636 -635.058)" fill="#f5ae2d"/>
      <path id="Path_362" data-name="Path 362" d="M566.136,696.809c-.18,0-.828-.031-1.938-.09a17.192,17.192,0,0,1-3.921-.767,23.022,23.022,0,0,1-4.778-2.118,16.636,16.636,0,0,1-4.688-4.148,22.3,22.3,0,0,1-3.561-6.806,31.737,31.737,0,0,1-1.4-10.141V650.2h11V672.74a23.625,23.625,0,0,0,.361,4.057,11.313,11.313,0,0,0,1.352,3.786,8.122,8.122,0,0,0,2.795,2.84,10.694,10.694,0,0,0,9.556,0,8.154,8.154,0,0,0,2.795-2.84,11.357,11.357,0,0,0,1.351-3.786,23.629,23.629,0,0,0,.362-4.057V650.2h11V672.74a31.789,31.789,0,0,1-1.4,10.141,22.334,22.334,0,0,1-3.561,6.806,16.646,16.646,0,0,1-4.688,4.148A23.086,23.086,0,0,1,572,695.953a17.224,17.224,0,0,1-3.921.767C566.961,696.778,566.316,696.809,566.136,696.809Z" transform="translate(-440.4 -635.058)" fill="#f5ae2d"/>
      <path id="Path_363" data-name="Path 363" d="M672.535,648.123c.18,0,.825.031,1.938.09a17.2,17.2,0,0,1,3.922.767,23.149,23.149,0,0,1,4.778,2.118,16.67,16.67,0,0,1,4.687,4.147,22.336,22.336,0,0,1,3.561,6.806,31.752,31.752,0,0,1,1.4,10.141V695h-11V672.192a23.669,23.669,0,0,0-.361-4.056,11.39,11.39,0,0,0-1.352-3.787,8.181,8.181,0,0,0-2.795-2.84,10.695,10.695,0,0,0-9.556,0,8.144,8.144,0,0,0-2.795,2.84,11.351,11.351,0,0,0-1.353,3.787,23.582,23.582,0,0,0-.36,4.056V695h-11V672.192a31.739,31.739,0,0,1,1.4-10.141,22.334,22.334,0,0,1,3.561-6.806A16.656,16.656,0,0,1,661.9,651.1a23.088,23.088,0,0,1,4.778-2.118,17.161,17.161,0,0,1,3.876-.767Q672.174,648.125,672.535,648.123Z" transform="translate(-487.521 -634.15)" fill="#f5ae2d"/>
      <path id="Path_364" data-name="Path 364" d="M770.45,684.172h-11V623.323h11v33.355l13.432-18.21h12.169l-13.883,19.021,19.382,26.683H789.38l-13.432-18.389-5.5,7.121Z" transform="translate(-535.013 -623.323)" fill="#f5ae2d"/>
      <path id="Path_365" data-name="Path 365" d="M424.387,764.868V743.323h10.727v37.952a33.275,33.275,0,0,1-.9,8.2,24,24,0,0,1-2.388,6.085,16.8,16.8,0,0,1-3.38,4.238,21.341,21.341,0,0,1-3.876,2.749,23.362,23.362,0,0,1-10.548,2.524,23.74,23.74,0,0,1-10.728-2.524,22.655,22.655,0,0,1-3.921-2.749,16.528,16.528,0,0,1-3.426-4.192,23.182,23.182,0,0,1-2.388-6.04,33.2,33.2,0,0,1-.9-8.2,34.852,34.852,0,0,1,.857-8.2,25.161,25.161,0,0,1,2.254-6.085,17.775,17.775,0,0,1,3.155-4.282A18.2,18.2,0,0,1,402.571,760a20.7,20.7,0,0,1,9.916-2.7,18.834,18.834,0,0,1,5.409,1.352,18.624,18.624,0,0,1,4.6,3.02,14.934,14.934,0,0,1,3.876,5.814ZM414.019,794.8a9.528,9.528,0,0,0,5.364-1.353,9.692,9.692,0,0,0,3.154-3.38,13.01,13.01,0,0,0,1.488-4.373,26.14,26.14,0,0,0,0-8.654,13.027,13.027,0,0,0-1.488-4.373,9.7,9.7,0,0,0-3.154-3.38,11.318,11.318,0,0,0-10.728,0,9.287,9.287,0,0,0-3.111,3.38,13.612,13.612,0,0,0-1.442,4.373,26.149,26.149,0,0,0,0,8.654,13.593,13.593,0,0,0,1.442,4.373,9.276,9.276,0,0,0,3.111,3.38A9.519,9.519,0,0,0,414.019,794.8Z" transform="translate(-372.326 -675.713)" fill="#f5ae2d"/>
      <path id="Path_366" data-name="Path 366" d="M523.5,816.809c-.18,0-.827-.031-1.938-.089a17.221,17.221,0,0,1-3.921-.766,23.088,23.088,0,0,1-4.778-2.118,16.649,16.649,0,0,1-4.687-4.147,22.3,22.3,0,0,1-3.561-6.806,31.732,31.732,0,0,1-1.4-10.142V770.2h11V792.74a23.546,23.546,0,0,0,.36,4.057,11.321,11.321,0,0,0,1.352,3.786,8.127,8.127,0,0,0,2.794,2.839,10.7,10.7,0,0,0,9.556,0,8.159,8.159,0,0,0,2.795-2.839,11.391,11.391,0,0,0,1.352-3.786,23.694,23.694,0,0,0,.361-4.057V770.2h11V792.74a31.768,31.768,0,0,1-1.4,10.142,22.333,22.333,0,0,1-3.561,6.806,16.673,16.673,0,0,1-4.687,4.147,23.171,23.171,0,0,1-4.778,2.118,17.241,17.241,0,0,1-3.921.766C524.323,816.778,523.678,816.809,523.5,816.809Z" transform="translate(-421.517 -687.448)" fill="#f5ae2d"/>
      <path id="Path_367" data-name="Path 367" d="M641.345,764.868V743.323h10.728v37.952a33.244,33.244,0,0,1-.9,8.2,23.994,23.994,0,0,1-2.388,6.085,16.794,16.794,0,0,1-3.38,4.238,21.363,21.363,0,0,1-3.876,2.749,23.364,23.364,0,0,1-10.548,2.524,23.742,23.742,0,0,1-10.728-2.524,22.665,22.665,0,0,1-3.921-2.749,16.522,16.522,0,0,1-3.426-4.192,23.169,23.169,0,0,1-2.388-6.04,33.21,33.21,0,0,1-.9-8.2,34.866,34.866,0,0,1,.857-8.2,25.156,25.156,0,0,1,2.253-6.085,17.791,17.791,0,0,1,3.155-4.282A18.247,18.247,0,0,1,619.528,760a20.7,20.7,0,0,1,9.916-2.7,18.826,18.826,0,0,1,5.408,1.352,18.606,18.606,0,0,1,4.6,3.02,14.936,14.936,0,0,1,3.877,5.814ZM630.977,794.8a9.529,9.529,0,0,0,5.365-1.353,9.692,9.692,0,0,0,3.154-3.38,13.028,13.028,0,0,0,1.488-4.373,26.114,26.114,0,0,0,0-8.654,13.046,13.046,0,0,0-1.488-4.373,9.7,9.7,0,0,0-3.154-3.38,11.318,11.318,0,0,0-10.728,0,9.286,9.286,0,0,0-3.111,3.38,13.616,13.616,0,0,0-1.442,4.373,26.2,26.2,0,0,0,0,8.654,13.6,13.6,0,0,0,1.442,4.373,9.275,9.275,0,0,0,3.111,3.38A9.519,9.519,0,0,0,630.977,794.8Z" transform="translate(-468.65 -675.713)" fill="#f5ae2d"/>
      <path id="Path_368" data-name="Path 368" d="M762.771,786.333q.179,1.352.315,2.794t.135,3.065v1.624H731.67q.18,1.532.451,3.109a14.568,14.568,0,0,0,.9,3.111,11.274,11.274,0,0,0,3.065,4.146,10.133,10.133,0,0,0,11.539,0,11.313,11.313,0,0,0,3.065-4.146h11.719a20.771,20.771,0,0,1-2.029,5.5,21.206,21.206,0,0,1-2.884,4.057,16.472,16.472,0,0,1-3.381,2.84,24.849,24.849,0,0,1-3.516,1.847,24.2,24.2,0,0,1-19.472-.9,22.609,22.609,0,0,1-3.921-2.75,16.493,16.493,0,0,1-3.426-4.192,23.163,23.163,0,0,1-2.389-6.04,37.78,37.78,0,0,1,0-16.407,23.965,23.965,0,0,1,2.389-6.085,17.017,17.017,0,0,1,3.426-4.281,21.509,21.509,0,0,1,3.921-2.8,23.831,23.831,0,0,1,10.728-2.7,25.271,25.271,0,0,1,9.285,2.074,22.093,22.093,0,0,1,3.651,2.118,17.374,17.374,0,0,1,3.425,3.246,21.3,21.3,0,0,1,2.795,4.6A23.351,23.351,0,0,1,762.771,786.333Zm-11.359,0a22.979,22.979,0,0,0-1.126-2.885,9.22,9.22,0,0,0-1.848-2.614,8.577,8.577,0,0,0-2.794-1.848,10.935,10.935,0,0,0-7.573,0,8.557,8.557,0,0,0-2.794,1.848,10.025,10.025,0,0,0-1.893,2.614,14,14,0,0,0-1.082,2.885Z" transform="translate(-518.004 -686.54)" fill="#f5ae2d"/>
    </g>
  </g>
</svg>
