<!-- eslint-disable -->
<svg xmlns="http://www.w3.org/2000/svg" width="278" height="308.212" viewBox="0 0 278 308.212">
  <g id="Logo" transform="translate(-339.362 -89.062)">
    <g id="Group_2" data-name="Group 2" transform="translate(397.278 89.062)">
      <path id="Path_1" data-name="Path 1" d="M557.119,169.99q-1.089-2.552-2.334-5.019l-78.63,78.982-39.593-39.594,78.755-78.754q-2.417-1.208-4.911-2.276l-34.341,34.343L441.7,123.308q-2.435,1.034-4.789,2.213l35.653,35.651-39.6,39.6-35.729-35.731q-1.181,2.349-2.225,4.776l77.695,77.7-35.865,35.866q2.355,1.173,4.785,2.214l77.622-77.621,35.684,35.684q1.192-2.39,2.247-4.859L522.75,204.359Z" transform="translate(-395.014 -79.209)" fill="#fff"/>
      <g id="Group_1" data-name="Group 1" transform="translate(44.482)">
        <path id="Path_2" data-name="Path 2" d="M500.744,127.664h-4.316a32.286,32.286,0,0,0-64.572,0H427.54a36.6,36.6,0,0,1,73.2,0Z" transform="translate(-427.54 -91.062)" fill="#fff"/>
      </g>
    </g>
    <text id="fika" transform="translate(339.362 383.274)" fill="#fff" font-size="61" font-family="Helvetica" letter-spacing="1em"><tspan x="0" y="0">fika</tspan></text>
  </g>
</svg>
