<!-- eslint-disable -->
<svg xmlns="http://www.w3.org/2000/svg" width="386.27" height="375.554" viewBox="0 0 386.27 375.554">
  <g id="Group_2006" data-name="Group 2006" transform="translate(-245.77 -147.327)">
    <g id="Layer_8" data-name="Layer 8" transform="translate(245.77 147.327)">
      <g id="Group_107" data-name="Group 107" transform="translate(0 0)">
        <path id="Path_28" data-name="Path 28" d="M417.661,398.97A176.661,176.661,0,0,0,615.3,292.842a21.479,21.479,0,0,0-21.169-29.534c-30.487,1.854-82.535,16.083-148.036,3.135s-112.519-46.763-140.005-60.079a21.481,21.481,0,0,0-30.815,19.259A176.66,176.66,0,0,0,417.661,398.97Z" transform="translate(-275.272 -37.863)" fill="#738cb8"/>
        <g id="Group_106" data-name="Group 106" transform="translate(14.084)">
          <path id="Path_29" data-name="Path 29" d="M650.536,297.126c-4.7-22.576-11.912-45.186-24.567-64.662-10.883-16.744-25-30.636-40.425-43.165-31.578-25.644-72.787-38.621-113.121-41.557-99.9-7.274-191.945,82.394-192.334,181.629-.176,44.669,13.366,91.426,40.659,127.128C351.8,497.119,397.8,515.39,447.364,521.455c45.686,5.589,99.352-5.326,137.715-31.449,31.952-21.76,77.77-63.012,65-106.892-3.662-12.594-12.45-25.761-25.749-29.361-12.336-3.337-23.7,2.676-34.122,8.543-22.736,12.8-49.641,12.184-75.106,12.176a316.006,316.006,0,0,1-92.344-13.579c-23.88-7.288-46.783-17.92-61.486-39.01-5.431-7.791-15.422-11.392-24.1-6.317-7.713,4.513-11.786,16.255-6.317,24.1,26.907,38.6,71.146,55.054,115.856,63.457a386.3,386.3,0,0,0,78.151,6.469c22.365-.392,42.227-.2,67.692-10.362,12.1-4.829,19.9-13.916,24.108-5.188s-10.678,30.37-20.581,40.87c-12.345,13.088-26.8,24.912-42.82,33.219-18.692,9.686-40.715,14.808-61.372,18.121-20.765,3.328-42.077,1.208-62.483-3.39-19.908-4.486-39.387-10.941-56.069-23.008-31.194-22.567-46.979-57.865-54.168-92.856-8.423-41-1.734-83.067,22.324-117.985,23.111-33.546,60.673-59.082,101.288-65.306,18.487-2.834,37.89-.945,55.985,3.463,19.192,4.674,39.214,10.8,55.581,22.2,14.246,9.921,28.711,22.95,38.653,37.111,12.676,18.057,19.107,38.6,23.567,60.017,4.615,22.181,38.577,12.793,33.965-9.365Z" transform="translate(-280.087 -147.327)" fill="#274580"/>
        </g>
      </g>
    </g>
  </g>
</svg>
