<svg xmlns="http://www.w3.org/2000/svg" width="413.69" height="222.385" viewBox="0 0 413.69 222.385">
  <g id="Group_2005" data-name="Group 2005" transform="translate(0 -0.001)" opacity="0.778">
    <g id="B-2" transform="translate(0 47.001)" style="isolation: isolate">
      <g id="Group_1994" data-name="Group 1994" transform="translate(0 0)" style="isolation: isolate">
        <path id="Path_455" data-name="Path 455" d="M786.125,8.107A42.232,42.232,0,0,1,764.647,2.7q-46.856-25.9-46.854-88.9,0-19.712,7.809-49.857a3.523,3.523,0,0,1-1.563-.387,52.826,52.826,0,0,0-7.42,1.543,8.218,8.218,0,0,1-5.857-5.716l1.551-3.047q-.767-7.238,7.761-8.378,12.411-1.149,13.58-2.1t4.271-7.812q2.327-5.329,6.98-5.329,5.82,0,6.4,5.589t2.527,5.974h6.213q6.587,0,20.95.579t21.726.577H816.3q2.708-8.485,7.37-8.481,5.818,0,9.7,7.324H964.506q3.139,0,7.852,4.433t4.711,7.517q0,6.162-1.171,6.938a40.583,40.583,0,0,1-5.076,4.24q-35.93-6.17-51.542-6.166l-2.343.385q68.327,26.207,68.332,78.249,0,30.065-23.428,45.87Q941.14.007,909.908.013A106.118,106.118,0,0,1,863.83-10.781q-26.559-12.34-32.8-31.606Q824.78,8.1,786.125,8.107Zm2.344-19.272q21.471,0,27.725-40.986,2.721-16.624,2.733-58,0-16.246-2.342-25.905-12.886-.389-53.5-.387-10.159,0-18.351.773Q733.8-117.114,733.8-86.565q0,24.744,14.837,48.333Q765.04-11.166,788.469-11.165Zm123-8.1q58.568,0,58.569-42.153,0-28.62-37.874-52.213Q898.19-134.9,867.736-134.9H833.373v28.622q0,44.468,16.009,64.59Q867.732-19.267,911.47-19.261Z" transform="translate(-710.762 167.278)" fill="#46a8e5"/>
      </g>
    </g>
    <path id="Subtraction_1" data-name="Subtraction 1" d="M53.443,119.3h0a281.17,281.17,0,0,1-36.965-2.672C6.64,115.3.065,113.968,0,113.954a59.109,59.109,0,0,0,10.351-1.866,34.122,34.122,0,0,0,8.086-3.28,13.923,13.923,0,0,0,5.714-5.688c1.9-3.9.974-8.654-2.741-14.121a45.847,45.847,0,0,1-6.246-13.759,61.244,61.244,0,0,1-2.012-13.052,62.442,62.442,0,0,1,1.225-15.951A42.937,42.937,0,0,1,16.119,40,55.834,55.834,0,0,1,20.2,31.078a66.684,66.684,0,0,1,5.614-8.5,58.691,58.691,0,0,1,8.446-8.829A63.048,63.048,0,0,1,45.436,6.193,49.125,49.125,0,0,1,59.006,1.3,69.466,69.466,0,0,1,72.051,0,53.7,53.7,0,0,1,86.492,1.909,65.551,65.551,0,0,1,109.93,13.526,52.482,52.482,0,0,1,123.184,29.2a58.677,58.677,0,0,1,5.281,13.2,67.1,67.1,0,0,1,2.029,11.7,58.326,58.326,0,0,1-.066,11.568,53.769,53.769,0,0,1-1.292,7.051,63.482,63.482,0,0,1-5.952,15.437,54.887,54.887,0,0,1-11.812,14.665,59.292,59.292,0,0,1-19.179,11.124C82.337,117.5,69.3,119.3,53.443,119.3ZM74.8,37.1V71.534H89.353a15.634,15.634,0,0,0,5.877-1.008,9.751,9.751,0,0,0,6.123-9.047,8.288,8.288,0,0,0-2.32-6.211,11.781,11.781,0,0,0-3.962-2.273,9.076,9.076,0,0,0,2.766-2.015,7.785,7.785,0,0,0,1.852-5.344,8.38,8.38,0,0,0-1.5-4.922,7.825,7.825,0,0,0-3.428-2.707,13.408,13.408,0,0,0-5.174-.9Zm-32.015,0V71.534H57.337a15.634,15.634,0,0,0,5.877-1.008,9.751,9.751,0,0,0,6.123-9.047,8.288,8.288,0,0,0-2.32-6.211,11.784,11.784,0,0,0-3.961-2.273,9.081,9.081,0,0,0,2.765-2.015,7.785,7.785,0,0,0,1.852-5.344,8.38,8.38,0,0,0-1.5-4.922,7.825,7.825,0,0,0-3.428-2.707,13.408,13.408,0,0,0-5.174-.9Zm46.64,30.445H79.369V55.433h9.257a12.747,12.747,0,0,1,4.711.726,5.071,5.071,0,0,1,3.352,5.109,6.285,6.285,0,0,1-1.148,3.8C94.327,66.714,92.269,67.549,89.423,67.549Zm-32.015,0H47.353V55.433h9.257a12.747,12.747,0,0,1,4.711.726,5.071,5.071,0,0,1,3.352,5.109,6.285,6.285,0,0,1-1.148,3.8C62.312,66.714,60.254,67.549,57.408,67.549Zm30.445-15.89H79.369V41h8.32a12.391,12.391,0,0,1,4.594.656A4.49,4.49,0,0,1,95.025,46.2a4.744,4.744,0,0,1-2.578,4.64A10.5,10.5,0,0,1,87.854,51.659Zm-32.016,0H47.353V41h8.32a12.391,12.391,0,0,1,4.594.656A4.49,4.49,0,0,1,63.009,46.2a4.744,4.744,0,0,1-2.578,4.64A10.5,10.5,0,0,1,55.838,51.659Z" transform="translate(282.956 0.001)" fill="#46a8e5"/>
    <path id="Subtraction_2" data-name="Subtraction 2" d="M30.949,61.892A30.946,30.946,0,1,1,61.892,30.943,30.984,30.984,0,0,1,30.949,61.892ZM19.692,11.256A14.064,14.064,0,1,0,33.759,25.318,14.078,14.078,0,0,0,19.692,11.256Z" transform="translate(135.689 106.469)" fill="#46a8e5"/>
    <path id="Subtraction_3" data-name="Subtraction 3" d="M30.949,61.892A30.946,30.946,0,1,1,61.892,30.943,30.984,30.984,0,0,1,30.949,61.892ZM19.692,11.256A14.064,14.064,0,1,0,33.759,25.318,14.078,14.078,0,0,0,19.692,11.256Z" transform="translate(28.792 106.469)" fill="#46a8e5"/>
  </g>
</svg>
