<svg xmlns="http://www.w3.org/2000/svg" width="70.631" height="96.529" viewBox="0 0 70.631 96.529">
  <g id="Group_2007" data-name="Group 2007" transform="translate(-334.489 -155.375)">
    <path id="Path_355" data-name="Path 355" d="M692.334,353.916" transform="translate(-308.098 -171.066)" fill="#fff" stroke="#030504" stroke-miterlimit="10" stroke-width="1"/>
    <g id="Group_228" data-name="Group 228" transform="translate(334.489 155.375)">
      <path id="Path_356" data-name="Path 356" d="M405.025,195.766l-1.258-13.847c-.042-.461-.1-.945-.179-1.428l-.019-.188h-.01l0-.024a26.286,26.286,0,0,0-2.19-11.181,23.8,23.8,0,0,0-5.957-8.893,12.381,12.381,0,0,0-7.916-3.464,21.094,21.094,0,0,0-8.616-1.326c-7.519.583-11.14,3.242-15.56,8.27-4.781,5.438-7.3,5.921-7.312,5.924l-1.558.16,1.083,1.142a28.872,28.872,0,0,0,2.143,2.039,14.754,14.754,0,0,0-.628,5.783,17.784,17.784,0,0,0,.545,3.711,4.251,4.251,0,0,0-.919.3,4.067,4.067,0,0,0-3.614-3.1,3.429,3.429,0,0,0-.408,0c-.054,0-.108.008-.167.014-.075.008-.15.019-.22.031a3.718,3.718,0,0,0-.5.117l-.017.005c-.127.04-.243.083-.353.129a4.6,4.6,0,0,0-3.619-2.143,4.547,4.547,0,0,0-3.473,1.374,5.427,5.427,0,0,0-1.561,3.58c0,.035,0,.071,0,.109a3.218,3.218,0,0,0-.975-.205c-.1-.005-.208-.006-.316,0a3.669,3.669,0,0,0-3.338,3.323,4.064,4.064,0,0,0,.26,1.99,1.806,1.806,0,0,0-1.083,1.574l-.463,9.768a7.088,7.088,0,0,0-2.054,4.643l-.266,5.183a7.1,7.1,0,0,0,1.484,4.72l-.123,3.379a1.812,1.812,0,0,0,.461,1.308,1.781,1.781,0,0,0,1.242.6l22.509,1.177a1.783,1.783,0,0,0,1.3-.465,1.81,1.81,0,0,0,.593-1.253l.553-10.774a22.489,22.489,0,0,0,20.146,12.656h0c.683,0,1.375-.032,2.057-.095A22.623,22.623,0,0,0,405.025,195.766ZM362.7,204.16l.673-13.094a11.376,11.376,0,0,0,6.1,1.84c.311,0,.622-.014.926-.042a10.789,10.789,0,0,0,8.462-5.03,3.044,3.044,0,0,0,2.785,1.871c.092,0,.186,0,.278-.013a3.044,3.044,0,0,0,2.679-2.392,10.516,10.516,0,0,0,8.075,3.449c.383,0,.771-.018,1.156-.054a11.329,11.329,0,0,0,7.1-3.569,10.878,10.878,0,0,0,1.576-2.15l.993,10.931a21.1,21.1,0,0,1-4.751,15.43,20.73,20.73,0,0,1-14.173,7.52A21.017,21.017,0,0,1,362.7,204.16ZM341.586,184.2l.092,0a1.723,1.723,0,0,1,.664.172,1.3,1.3,0,0,0,1.337-.125,1.445,1.445,0,0,0,.58-1.175c0-.091,0-.166,0-.236a3.881,3.881,0,0,1,1.109-2.563,3.043,3.043,0,0,1,2.319-.93,3.115,3.115,0,0,1,2.489,1.558,1.313,1.313,0,0,0,1.7.512,2.3,2.3,0,0,1,.308-.121l.015,0a2.163,2.163,0,0,1,.306-.072c.043-.008.087-.014.138-.019.028,0,.056-.006.088-.008a2.078,2.078,0,0,1,.238,0,2.548,2.548,0,0,1,2.251,2.1,1.393,1.393,0,0,0,.712.949,1.3,1.3,0,0,0,1.211-.009,2.712,2.712,0,0,1,1.6-.31,3.25,3.25,0,0,1,2.659,3.338,3.9,3.9,0,0,1-.754,1.7l-.208-.008-7.338-.514-9.655-.505a2.359,2.359,0,0,0-1.8.709,2.743,2.743,0,0,0-.791,1.808l-.3,5.857a.361.361,0,0,1-.1.239.16.16,0,0,1-.128.058.17.17,0,0,1-.121-.071.362.362,0,0,1-.074-.249l.372-7.23a1.466,1.466,0,0,0-.344-1.023,2.417,2.417,0,0,1-.537-1.857h0a2.125,2.125,0,0,1,1.885-1.963Zm3.8,10.049-.2,3.885a6.945,6.945,0,0,0-.679-.334l.184-3.587a.348.348,0,0,1,.115-.241.34.34,0,0,1,.25-.091.344.344,0,0,1,.24.116A.349.349,0,0,1,345.384,194.251Zm4.148,20.864,1.058-20.592a.353.353,0,0,1,.346-.333h.019a.35.35,0,0,1,.329.368l-1.058,20.592a.349.349,0,0,1-.115.241.341.341,0,0,1-.489-.026A.349.349,0,0,1,349.532,215.115Zm-11.341-14.982.078-.064a5.463,5.463,0,0,1,3.5-1.282q.143,0,.288.008a5.431,5.431,0,0,1,3.789,1.829,5.53,5.53,0,0,1,1.411,3.992l-.266,5.183a5.519,5.519,0,0,1-1.812,3.823,5.432,5.432,0,0,1-7.745-.405,5.531,5.531,0,0,1-1.411-3.991l.266-5.183A5.509,5.509,0,0,1,338.191,200.133Zm-.731,15.157a6.943,6.943,0,0,0,5.534,1.143,1.864,1.864,0,0,0,2.842-1.357c.136-.108.257-.21.368-.311a7.069,7.069,0,0,0,1.97-3.034l-.17,3.3a1.891,1.891,0,0,0,.481,1.365,1.859,1.859,0,0,0,1.3.624l.1,0a1.863,1.863,0,0,0,1.254-.488,1.888,1.888,0,0,0,.619-1.307l1.058-20.592a1.889,1.889,0,0,0-1.777-1.989h0a1.858,1.858,0,0,0-1.353.486,1.887,1.887,0,0,0-.618,1.307l-.43,8.37a7.084,7.084,0,0,0-1.648-3.224c-.1-.107-.2-.219-.326-.339l.253-4.919a1.89,1.89,0,0,0-1.777-1.989,1.852,1.852,0,0,0-1.353.486,1.888,1.888,0,0,0-.619,1.307L343,197.351a7.028,7.028,0,0,0-.858-.1c-.1-.005-.2-.008-.311-.008a1.923,1.923,0,0,0,.254-.867l.3-5.857a1.2,1.2,0,0,1,.339-.791.846.846,0,0,1,.648-.265l9.641.5,8.435.591.013-.022.142.007a.278.278,0,0,1,.255.285l-1.423,27.7a.27.27,0,0,1-.089.187.26.26,0,0,1-.193.07l-22.509-1.178a.266.266,0,0,1-.185-.09.278.278,0,0,1-.069-.207Zm21.585-33.327a16.322,16.322,0,0,1-.473-3.284,15.369,15.369,0,0,1,.36-4.71c.579.441,1.176.859,1.776,1.244A22.584,22.584,0,0,0,359.045,181.963ZM393.7,165.827c.553,4.542-2.458,9.977-9.283,11.578-2.694.632-16.6,3.264-26.939-6.706,1.4-.674,3.7-2.262,6.98-5.988,4.238-4.82,7.494-7.21,14.534-7.755C383.4,156.614,392.789,158.334,393.7,165.827Zm1.578.56c-.012-.272-.033-.517-.061-.748a9.723,9.723,0,0,0-2.678-5.683,20.559,20.559,0,0,1,7.406,9.724,34.094,34.094,0,0,1,1.3,3.854A23.355,23.355,0,0,0,395.28,166.387Zm6.738,14.159.03,0,.009.054.009.052c.279,3.876-3.866,8.089-8.368,8.506-4.753.44-8.914-2.231-9.267-5.959l-.181-1.364a3.047,3.047,0,0,0-1.754-2.493c.984-.152,1.761-.316,2.268-.435a14.3,14.3,0,0,0,7.491-4.271,11.942,11.942,0,0,0,2.941-6.3,20.93,20.93,0,0,1,6.822,12.042l0,.03Zm-18.879,5.971a1.506,1.506,0,0,1-.34,1.1,1.483,1.483,0,0,1-2.1.2,1.5,1.5,0,0,1-.534-1.022l-.413-4.54a1.507,1.507,0,0,1,.339-1.1,1.481,1.481,0,0,1,1.013-.537q.069-.006.137-.006a1.51,1.51,0,0,1,1.487,1.37Zm-21.106-10.5a28.968,28.968,0,0,0,9.624,3.32,34.4,34.4,0,0,0,7.759.349,3,3,0,0,0-.5.483,3.046,3.046,0,0,0-.687,2.225l.074,1.385c.324,3.726-3.282,7.115-8.039,7.555h0a9.85,9.85,0,0,1-7.621-2.8,3.213,3.213,0,0,0,.293-1.265,5.025,5.025,0,0,0-2.421-4.343A21.045,21.045,0,0,1,362.033,176.011ZM338.6,196.2a1.91,1.91,0,0,0,.419,1.307,1.771,1.771,0,0,0,.215.221,7.041,7.041,0,0,0-.831.391l.4-8.491a.275.275,0,0,1,.093-.186.288.288,0,0,1,.051-.037Z" transform="translate(-334.489 -155.375)" fill="#fff"/>
      <path id="Path_357" data-name="Path 357" d="M563.953,350.374l2.265-.208.208,2.265,1.536-.141-.208-2.265,2.265-.208-.141-1.536-2.265.208-.208-2.265-1.537.141.208,2.265-2.265.208Z" transform="translate(-531.958 -319.453)" fill="#fff"/>
      <path id="Path_358" data-name="Path 358" d="M741.658,332.529l-2.265.208-.208-2.265-1.536.141.208,2.265-2.266.208.141,1.536,2.265-.208.208,2.265,1.536-.141-.208-2.265,2.265-.208Z" transform="translate(-679.963 -305.911)" fill="#fff"/>
      <rect id="Rectangle_133" data-name="Rectangle 133" width="1.122" height="2.26" transform="translate(10.128 10.327)" fill="#fff"/>
      <rect id="Rectangle_134" data-name="Rectangle 134" width="2.089" height="1.122" transform="translate(11.799 12.82) rotate(-26.654)" fill="#fff"/>
      <rect id="Rectangle_135" data-name="Rectangle 135" width="1.122" height="1.835" transform="matrix(0.548, -0.837, 0.837, 0.548, 11.862, 15.987)" fill="#fff"/>
      <rect id="Rectangle_136" data-name="Rectangle 136" width="2.018" height="1.122" transform="translate(9.761 18.311) rotate(-88.779)" fill="#fff"/>
      <rect id="Rectangle_137" data-name="Rectangle 137" width="1.993" height="1.122" transform="matrix(0.881, -0.474, 0.474, 0.881, 6.812, 15.978)" fill="#fff"/>
      <rect id="Rectangle_138" data-name="Rectangle 138" width="1.122" height="1.993" transform="translate(6.812 12.875) rotate(-61.734)" fill="#fff"/>
      <rect id="Rectangle_139" data-name="Rectangle 139" width="1.465" height="0.842" transform="translate(18.824 19.559) rotate(-77.14)" fill="#fff"/>
      <rect id="Rectangle_140" data-name="Rectangle 140" width="1.363" height="0.842" transform="translate(19.842 19.827) rotate(-13.775)" fill="#fff"/>
      <rect id="Rectangle_141" data-name="Rectangle 141" width="0.842" height="1.211" transform="translate(19.371 21.755) rotate(-43.911)" fill="#fff"/>
      <rect id="Rectangle_142" data-name="Rectangle 142" width="1.32" height="0.841" transform="translate(17.855 22.847) rotate(-75.909)" fill="#fff"/>
      <rect id="Rectangle_143" data-name="Rectangle 143" width="1.305" height="0.842" transform="translate(16.477 20.991) rotate(-15.404)" fill="#fff"/>
      <rect id="Rectangle_144" data-name="Rectangle 144" width="0.842" height="1.306" transform="translate(16.865 19.275) rotate(-48.86)" fill="#fff"/>
      <rect id="Rectangle_145" data-name="Rectangle 145" width="1.122" height="1.939" transform="translate(19.113 0.402) rotate(-12.354)" fill="#fff"/>
      <rect id="Rectangle_146" data-name="Rectangle 146" width="1.796" height="1.122" transform="translate(21.017 2.068) rotate(-38.995)" fill="#fff"/>
      <rect id="Rectangle_147" data-name="Rectangle 147" width="1.122" height="1.583" transform="matrix(0.356, -0.934, 0.934, 0.356, 21.563, 4.802)" fill="#fff"/>
      <rect id="Rectangle_148" data-name="Rectangle 148" width="1.122" height="1.736" transform="translate(19.91 5.34) rotate(-11.138)" fill="#fff"/>
      <rect id="Rectangle_149" data-name="Rectangle 149" width="1.716" height="1.122" transform="matrix(0.759, -0.651, 0.651, 0.759, 17.443, 5.568)" fill="#fff"/>
      <rect id="Rectangle_150" data-name="Rectangle 150" width="1.122" height="1.715" transform="translate(16.922 3.165) rotate(-74.089)" fill="#fff"/>
      <path id="Path_359" data-name="Path 359" d="M475.932,447.674l.1,0a1.9,1.9,0,0,0,1.89-1.8l1.068-20.592a1.894,1.894,0,0,0-3.782-.2l-1.068,20.592a1.9,1.9,0,0,0,1.793,1.989Zm-.252-1.909,1.068-20.592a.35.35,0,0,1,.35-.333h.018a.354.354,0,0,1,.332.369L476.381,445.8a.347.347,0,0,1-.116.241.34.34,0,0,1-.252.091.354.354,0,0,1-.332-.368Z" transform="translate(-454.736 -385.716)" fill="#fff"/>
      <rect id="Rectangle_151" data-name="Rectangle 151" width="3.618" height="1.543" transform="translate(31.831 43.269) rotate(-72.983)" fill="#fff"/>
      <rect id="Rectangle_152" data-name="Rectangle 152" width="1.543" height="3.024" transform="translate(41.946 40.248) rotate(-16.068)" fill="#fff"/>
      <rect id="Rectangle_153" data-name="Rectangle 153" width="1.543" height="2.687" transform="translate(51.056 38.938)" fill="#fff"/>
      <rect id="Rectangle_154" data-name="Rectangle 154" width="1.543" height="2.732" transform="translate(56.87 39.34) rotate(-29.743)" fill="#fff"/>
      <rect id="Rectangle_155" data-name="Rectangle 155" width="2.978" height="1.543" transform="translate(63.283 40.018) rotate(-68.512)" fill="#fff"/>
      <rect id="Rectangle_156" data-name="Rectangle 156" width="1.543" height="2.552" transform="matrix(0.758, -0.652, 0.652, 0.758, 29.291, 49.658)" fill="#fff"/>
      <rect id="Rectangle_157" data-name="Rectangle 157" width="1.543" height="2.563" transform="translate(38.176 48.56)" fill="#fff"/>
      <rect id="Rectangle_158" data-name="Rectangle 158" width="1.543" height="3.108" transform="translate(46.238 49.042) rotate(-36.158)" fill="#fff"/>
      <rect id="Rectangle_159" data-name="Rectangle 159" width="2.749" height="1.543" transform="matrix(0.38, -0.925, 0.925, 0.38, 55.192, 50.819)" fill="#fff"/>
      <rect id="Rectangle_160" data-name="Rectangle 160" width="1.543" height="2.386" transform="matrix(0.729, -0.685, 0.685, 0.729, 62.211, 49.126)" fill="#fff"/>
      <rect id="Rectangle_161" data-name="Rectangle 161" width="1.543" height="2.49" transform="translate(40.701 57.358) rotate(-20.099)" fill="#fff"/>
      <rect id="Rectangle_162" data-name="Rectangle 162" width="1.543" height="2.687" transform="translate(49.803 55.993)" fill="#fff"/>
      <rect id="Rectangle_163" data-name="Rectangle 163" width="1.543" height="2.732" transform="matrix(0.868, -0.496, 0.496, 0.868, 55.72, 56.394)" fill="#fff"/>
    </g>
    <g id="Group_229" data-name="Group 229" transform="translate(337.587 219.698)">
      <path id="Path_360" data-name="Path 360" d="M364.475,628.687v-5.364h2.671v9.449a8.287,8.287,0,0,1-.225,2.042,5.988,5.988,0,0,1-.595,1.515,4.183,4.183,0,0,1-.842,1.055,5.324,5.324,0,0,1-.965.685,5.816,5.816,0,0,1-2.626.628,5.91,5.91,0,0,1-2.671-.628,5.637,5.637,0,0,1-.976-.685,4.113,4.113,0,0,1-.853-1.044,5.766,5.766,0,0,1-.595-1.5,8.256,8.256,0,0,1-.225-2.042,8.67,8.67,0,0,1,.213-2.042,6.244,6.244,0,0,1,.561-1.515,4.421,4.421,0,0,1,.785-1.066,4.529,4.529,0,0,1,.909-.7,5.149,5.149,0,0,1,2.469-.673,4.687,4.687,0,0,1,1.347.337,4.632,4.632,0,0,1,1.145.752,3.719,3.719,0,0,1,.965,1.447Zm-2.581,7.451a2.372,2.372,0,0,0,1.335-.337,2.41,2.41,0,0,0,.785-.842,3.239,3.239,0,0,0,.371-1.089,6.512,6.512,0,0,0,0-2.154,3.242,3.242,0,0,0-.371-1.088,2.412,2.412,0,0,0-.785-.842,2.817,2.817,0,0,0-2.671,0,2.309,2.309,0,0,0-.774.842,3.387,3.387,0,0,0-.359,1.088,6.507,6.507,0,0,0,0,2.154,3.384,3.384,0,0,0,.359,1.089,2.307,2.307,0,0,0,.774.842A2.37,2.37,0,0,0,361.894,636.138Z" transform="translate(-356.575 -623.323)" fill="#fff"/>
      <path id="Path_361" data-name="Path 361" d="M467.455,653.525a3,3,0,0,1,.494-1.829,3.625,3.625,0,0,1,1.077-1,3.879,3.879,0,0,1,1.571-.494h3.142v2.716h-2.11a1.486,1.486,0,0,0-.729.157,1.634,1.634,0,0,0-.438.337,1.278,1.278,0,0,0-.247.494v7.675h-2.76Z" transform="translate(-452.065 -646.432)" fill="#fff"/>
      <path id="Path_362" data-name="Path 362" d="M550.9,661.806q-.067,0-.483-.022a4.287,4.287,0,0,1-.976-.191,5.727,5.727,0,0,1-1.19-.527,4.142,4.142,0,0,1-1.167-1.033,5.552,5.552,0,0,1-.886-1.694,7.9,7.9,0,0,1-.348-2.525V650.2h2.738v5.611a5.884,5.884,0,0,0,.09,1.01,2.818,2.818,0,0,0,.337.943,2.021,2.021,0,0,0,.7.707,2.662,2.662,0,0,0,2.379,0,2.029,2.029,0,0,0,.7-.707,2.828,2.828,0,0,0,.336-.943,5.885,5.885,0,0,0,.09-1.01V650.2h2.738v5.611a7.915,7.915,0,0,1-.348,2.525,5.561,5.561,0,0,1-.887,1.694,4.146,4.146,0,0,1-1.167,1.033,5.746,5.746,0,0,1-1.189.527,4.3,4.3,0,0,1-.976.191C551.108,661.8,550.948,661.806,550.9,661.806Z" transform="translate(-519.599 -646.432)" fill="#fff"/>
      <path id="Path_363" data-name="Path 363" d="M657.3,648.123c.045,0,.206.008.482.022a4.28,4.28,0,0,1,.976.191,5.761,5.761,0,0,1,1.189.527,4.152,4.152,0,0,1,1.167,1.032,5.562,5.562,0,0,1,.886,1.694,7.91,7.91,0,0,1,.348,2.525v5.678h-2.738v-5.678a5.894,5.894,0,0,0-.09-1.01,2.836,2.836,0,0,0-.337-.943,2.036,2.036,0,0,0-.7-.707,2.662,2.662,0,0,0-2.379,0,2.026,2.026,0,0,0-.7.707,2.823,2.823,0,0,0-.337.943,5.87,5.87,0,0,0-.09,1.01v5.678h-2.738v-5.678a7.9,7.9,0,0,1,.348-2.525,5.561,5.561,0,0,1,.887-1.694,4.147,4.147,0,0,1,1.167-1.032,5.744,5.744,0,0,1,1.19-.527,4.27,4.27,0,0,1,.965-.191C657.077,648.131,657.242,648.123,657.3,648.123Z" transform="translate(-611.24 -644.644)" fill="#fff"/>
      <path id="Path_364" data-name="Path 364" d="M762.189,638.472h-2.738V623.323h2.738v8.3l3.344-4.534h3.03l-3.456,4.736,4.825,6.643H766.9l-3.344-4.578-1.369,1.773Z" transform="translate(-703.575 -623.323)" fill="#fff"/>
      <path id="Path_365" data-name="Path 365" d="M400.554,748.687v-5.364h2.671v9.449a8.284,8.284,0,0,1-.225,2.042,5.975,5.975,0,0,1-.595,1.515,4.18,4.18,0,0,1-.842,1.055,5.314,5.314,0,0,1-.965.684,5.817,5.817,0,0,1-2.626.628,5.911,5.911,0,0,1-2.671-.628,5.641,5.641,0,0,1-.976-.684,4.114,4.114,0,0,1-.853-1.044,5.77,5.77,0,0,1-.595-1.5,8.264,8.264,0,0,1-.225-2.042,8.677,8.677,0,0,1,.213-2.042,6.266,6.266,0,0,1,.561-1.515,4.427,4.427,0,0,1,.785-1.066,4.531,4.531,0,0,1,.909-.7,5.152,5.152,0,0,1,2.469-.673,4.686,4.686,0,0,1,1.347.337,4.634,4.634,0,0,1,1.145.752,3.719,3.719,0,0,1,.965,1.448Zm-2.581,7.451a2.372,2.372,0,0,0,1.335-.337,2.412,2.412,0,0,0,.785-.842,3.239,3.239,0,0,0,.37-1.089,6.51,6.51,0,0,0,0-2.155,3.244,3.244,0,0,0-.37-1.089,2.416,2.416,0,0,0-.785-.842,2.817,2.817,0,0,0-2.671,0,2.311,2.311,0,0,0-.774.842,3.388,3.388,0,0,0-.359,1.089,6.51,6.51,0,0,0,0,2.155,3.383,3.383,0,0,0,.359,1.089,2.308,2.308,0,0,0,.774.842A2.37,2.37,0,0,0,397.973,756.138Z" transform="translate(-387.593 -726.491)" fill="#fff"/>
      <path id="Path_366" data-name="Path 366" d="M508.264,781.806c-.045,0-.206-.008-.483-.022a4.292,4.292,0,0,1-.976-.191,5.75,5.75,0,0,1-1.189-.527,4.145,4.145,0,0,1-1.167-1.032,5.555,5.555,0,0,1-.887-1.694,7.9,7.9,0,0,1-.348-2.525V770.2h2.738v5.611a5.857,5.857,0,0,0,.09,1.01,2.818,2.818,0,0,0,.337.943,2.023,2.023,0,0,0,.7.707,2.663,2.663,0,0,0,2.379,0,2.032,2.032,0,0,0,.7-.707,2.836,2.836,0,0,0,.337-.943,5.9,5.9,0,0,0,.09-1.01V770.2h2.738v5.611a7.909,7.909,0,0,1-.348,2.525,5.561,5.561,0,0,1-.887,1.694,4.151,4.151,0,0,1-1.167,1.032,5.768,5.768,0,0,1-1.19.527,4.3,4.3,0,0,1-.976.191C508.469,781.8,508.309,781.806,508.264,781.806Z" transform="translate(-482.874 -749.6)" fill="#fff"/>
      <path id="Path_367" data-name="Path 367" d="M617.512,748.687v-5.364h2.671v9.449a8.278,8.278,0,0,1-.225,2.042,5.973,5.973,0,0,1-.595,1.515,4.18,4.18,0,0,1-.842,1.055,5.322,5.322,0,0,1-.965.684,5.817,5.817,0,0,1-2.626.628,5.911,5.911,0,0,1-2.671-.628,5.645,5.645,0,0,1-.976-.684,4.114,4.114,0,0,1-.853-1.044,5.771,5.771,0,0,1-.595-1.5,8.266,8.266,0,0,1-.224-2.042,8.677,8.677,0,0,1,.213-2.042,6.261,6.261,0,0,1,.561-1.515,4.428,4.428,0,0,1,.785-1.066,4.541,4.541,0,0,1,.909-.7,5.153,5.153,0,0,1,2.469-.673,4.685,4.685,0,0,1,1.347.337,4.632,4.632,0,0,1,1.145.752,3.72,3.72,0,0,1,.965,1.448Zm-2.581,7.451a2.372,2.372,0,0,0,1.336-.337,2.413,2.413,0,0,0,.785-.842,3.244,3.244,0,0,0,.37-1.089,6.508,6.508,0,0,0,0-2.155,3.249,3.249,0,0,0-.37-1.089,2.416,2.416,0,0,0-.785-.842,2.818,2.818,0,0,0-2.671,0,2.312,2.312,0,0,0-.774.842,3.388,3.388,0,0,0-.359,1.089,6.512,6.512,0,0,0,0,2.155,3.382,3.382,0,0,0,.359,1.089,2.309,2.309,0,0,0,.774.842A2.37,2.37,0,0,0,614.931,756.138Z" transform="translate(-574.518 -726.491)" fill="#fff"/>
      <path id="Path_368" data-name="Path 368" d="M731.018,772.657q.045.337.079.7t.034.763v.4h-7.855q.045.381.112.774a3.624,3.624,0,0,0,.224.774,2.805,2.805,0,0,0,.763,1.032,2.523,2.523,0,0,0,2.873,0,2.815,2.815,0,0,0,.763-1.032h2.918a5.177,5.177,0,0,1-.505,1.369,5.285,5.285,0,0,1-.718,1.01,4.1,4.1,0,0,1-.842.707,6.192,6.192,0,0,1-.875.46,6.024,6.024,0,0,1-4.848-.224,5.633,5.633,0,0,1-.976-.684,4.108,4.108,0,0,1-.853-1.044,5.771,5.771,0,0,1-.595-1.5,9.408,9.408,0,0,1,0-4.085,5.97,5.97,0,0,1,.595-1.515,4.237,4.237,0,0,1,.853-1.066,5.358,5.358,0,0,1,.976-.7,5.935,5.935,0,0,1,2.671-.673,6.289,6.289,0,0,1,2.312.516,5.507,5.507,0,0,1,.909.527,4.33,4.33,0,0,1,.853.808,5.307,5.307,0,0,1,.7,1.145A5.813,5.813,0,0,1,731.018,772.657Zm-2.828,0a5.707,5.707,0,0,0-.28-.718,2.3,2.3,0,0,0-.46-.651,2.134,2.134,0,0,0-.7-.46,2.724,2.724,0,0,0-1.885,0,2.13,2.13,0,0,0-.7.46,2.493,2.493,0,0,0-.471.651,3.484,3.484,0,0,0-.269.718Z" transform="translate(-670.081 -747.812)" fill="#fff"/>
    </g>
  </g>
</svg>
