<svg xmlns="http://www.w3.org/2000/svg" width="52.034" height="51.586" viewBox="0 0 52.034 51.586">
  <g id="Group_2009" data-name="Group 2009" transform="translate(-480.666 -865.185)">
    <g id="Group_2002" data-name="Group 2002" transform="translate(480.666 865.185)">
      <g id="Group_107" data-name="Group 107" transform="translate(0 0)">
        <path id="Path_28" data-name="Path 28" d="M292.94,227.407a22.114,22.114,0,0,0,24.523-12.645,2.578,2.578,0,0,0-2.627-3.519c-3.783.221-10.241,1.916-18.368.374s-13.961-5.572-17.372-7.158a2.662,2.662,0,0,0-3.823,2.295A21.281,21.281,0,0,0,292.94,227.407Z" transform="translate(-270.947 -177.543)" fill="#fff" opacity="0.132"/>
        <g id="Group_106" data-name="Group 106" transform="translate(0)">
          <path id="Path_29" data-name="Path 29" d="M331.878,167.9a25.6,25.6,0,0,0-3.435-8.882,26.2,26.2,0,0,0-5.652-5.929,28.761,28.761,0,0,0-15.815-5.708c-13.967-1-26.835,11.318-26.889,24.948a28.629,28.629,0,0,0,5.684,17.462c4.342,5.58,10.773,8.089,17.7,8.922a29.844,29.844,0,0,0,19.253-4.32c4.467-2.989,10.873-8.655,9.088-14.682a5.672,5.672,0,0,0-3.6-4.033c-1.725-.458-3.314.368-4.771,1.173-3.179,1.758-6.94,1.674-10.5,1.672a44.909,44.909,0,0,1-12.91-1.865c-3.339-1-6.541-2.461-8.6-5.358a2.553,2.553,0,0,0-3.369-.868,2.416,2.416,0,0,0-.883,3.31c3.762,5.3,9.947,7.562,16.2,8.716a54.946,54.946,0,0,0,10.926.889c3.127-.054,5.9-.027,9.464-1.423,1.691-.663,2.782-1.911,3.37-.713s-1.493,4.172-2.877,5.614a22.8,22.8,0,0,1-5.987,4.563,29.176,29.176,0,0,1-8.58,2.489,23.61,23.61,0,0,1-8.735-.466,21.2,21.2,0,0,1-7.839-3.16c-4.361-3.1-6.568-7.948-7.573-12.755a20.53,20.53,0,0,1,3.121-16.206,21.747,21.747,0,0,1,14.161-8.97,20.762,20.762,0,0,1,7.827.476,23.329,23.329,0,0,1,7.771,3.049,22.142,22.142,0,0,1,5.4,5.1,21.454,21.454,0,0,1,3.295,8.244c.645,3.047,5.393,1.757,4.748-1.286Z" transform="translate(-280.087 -147.327)" fill="#fff"/>
        </g>
      </g>
    </g>
    <g id="Group_2003" data-name="Group 2003" transform="translate(480.667 865.185)">
      <g id="Layer_8" data-name="Layer 8" transform="translate(0 0)">
        <g id="Group_106-2" data-name="Group 106" transform="translate(0)">
          <path id="Path_29-2" data-name="Path 29" d="M331.878,167.9a25.6,25.6,0,0,0-3.435-8.882,26.2,26.2,0,0,0-5.652-5.929,28.761,28.761,0,0,0-15.815-5.708c-13.967-1-26.835,11.318-26.889,24.948a28.629,28.629,0,0,0,5.684,17.462c4.342,5.58,10.773,8.089,17.7,8.922a29.844,29.844,0,0,0,19.253-4.32c4.467-2.989,10.873-8.655,9.088-14.682a5.672,5.672,0,0,0-3.6-4.033c-1.725-.458-3.314.368-4.771,1.173-3.179,1.758-6.94,1.674-10.5,1.672a44.909,44.909,0,0,1-12.91-1.865c-3.339-1-6.541-2.461-8.6-5.358a2.553,2.553,0,0,0-3.369-.868,2.416,2.416,0,0,0-.883,3.31c3.762,5.3,9.947,7.562,16.2,8.716a54.946,54.946,0,0,0,10.926.889c3.127-.054,5.9-.027,9.464-1.423,1.691-.663,2.782-1.911,3.37-.713s-1.493,4.172-2.877,5.614a22.8,22.8,0,0,1-5.987,4.563,29.176,29.176,0,0,1-8.58,2.489,23.61,23.61,0,0,1-8.735-.466,21.2,21.2,0,0,1-7.839-3.16c-4.361-3.1-6.568-7.948-7.573-12.755a20.53,20.53,0,0,1,3.121-16.206,21.747,21.747,0,0,1,14.161-8.97,20.762,20.762,0,0,1,7.827.476,23.329,23.329,0,0,1,7.771,3.049,22.142,22.142,0,0,1,5.4,5.1,21.454,21.454,0,0,1,3.295,8.244c.645,3.047,5.393,1.757,4.748-1.286Z" transform="translate(-280.087 -147.327)" fill="#fff"/>
        </g>
      </g>
    </g>
  </g>
</svg>
